<svg width="477.867" height="477.867" xmlns="http://www.w3.org/2000/svg">

 <g>
  <title>Layer 1</title>
  <g opacity="0.12" id="svg_1">
   <g id="svg_2">
    <path id="svg_3" d="m426.667,0l-375.467,0c-28.277,0 -51.2,22.923 -51.2,51.2l0,375.467c0,28.277 22.923,51.2 51.2,51.2l375.467,0c28.277,0 51.2,-22.923 51.2,-51.2l0,-375.467c0,-28.277 -22.923,-51.2 -51.2,-51.2zm17.066,426.667c0,9.426 -7.641,17.067 -17.067,17.067l-375.466,0c-9.426,0 -17.067,-7.641 -17.067,-17.067l0,-375.467c0,-9.426 7.641,-17.067 17.067,-17.067l375.467,0c9.426,0 17.067,7.641 17.067,17.067l0,375.467l-0.001,0z"/>
   </g>
  </g>
  <g opacity="0.12" id="svg_4">
   <g id="svg_5">
    <path id="svg_6" d="m153.6,102.4l-51.2,0c-9.426,0 -17.067,7.641 -17.067,17.067s7.641,17.067 17.067,17.067l51.2,0c9.426,0 17.067,-7.641 17.067,-17.067s-7.641,-17.067 -17.067,-17.067z"/>
   </g>
  </g>
  <g opacity="0.12" id="svg_7">
   <g id="svg_8">
    <path id="svg_9" d="m375.467,102.4l-153.6,0c-9.426,0 -17.067,7.641 -17.067,17.067s7.641,17.067 17.067,17.067l153.6,0c9.426,0 17.067,-7.641 17.067,-17.067s-7.642,-17.067 -17.067,-17.067z"/>
   </g>
  </g>
  <g opacity="0.12" id="svg_10">
   <g id="svg_11">
    <path id="svg_12" d="m153.6,221.867l-51.2,0c-9.426,0 -17.067,7.641 -17.067,17.067s7.641,17.066 17.067,17.066l51.2,0c9.426,0 17.067,-7.641 17.067,-17.067s-7.641,-17.066 -17.067,-17.066z"/>
   </g>
  </g>
  <g opacity="0.12" id="svg_13">
   <g id="svg_14">
    <path id="svg_15" d="m375.467,221.867l-153.6,0c-9.426,0 -17.067,7.641 -17.067,17.067s7.641,17.066 17.067,17.066l153.6,0c9.426,0 17.067,-7.641 17.067,-17.067s-7.642,-17.066 -17.067,-17.066z"/>
   </g>
  </g>
  <g opacity="0.12" id="svg_16">
   <g id="svg_17">
    <path id="svg_18" d="m153.6,341.333l-51.2,0c-9.426,0 -17.067,7.641 -17.067,17.067s7.641,17.067 17.067,17.067l51.2,0c9.426,0 17.067,-7.641 17.067,-17.067s-7.641,-17.067 -17.067,-17.067z"/>
   </g>
  </g>
  <g opacity="0.12" id="svg_19">
   <g id="svg_20">
    <path id="svg_21" d="m375.467,341.333l-153.6,0c-9.426,0 -17.067,7.641 -17.067,17.067s7.641,17.067 17.067,17.067l153.6,0c9.426,0 17.067,-7.641 17.067,-17.067s-7.642,-17.067 -17.067,-17.067z"/>
   </g>
  </g>
  <g opacity="0.12" id="svg_22"/>
  <g opacity="0.12" id="svg_23"/>
  <g opacity="0.12" id="svg_24"/>
  <g opacity="0.12" id="svg_25"/>
  <g opacity="0.12" id="svg_26"/>
  <g opacity="0.12" id="svg_27"/>
  <g opacity="0.12" id="svg_28"/>
  <g opacity="0.12" id="svg_29"/>
  <g opacity="0.12" id="svg_30"/>
  <g opacity="0.12" id="svg_31"/>
  <g opacity="0.12" id="svg_32"/>
  <g opacity="0.12" id="svg_33"/>
  <g opacity="0.12" id="svg_34"/>
  <g opacity="0.12" id="svg_35"/>
  <g opacity="0.12" id="svg_36"/>
 </g>
</svg>