<svg width="33" height="34" viewBox="0 0 33 34" fill="none" xmlns="http://www.w3.org/2000/svg">
	<path d="M29.1328 0H3.86719C1.73482 0 0 1.78739 0 3.98438V9.29688H2.57812V3.98438C2.57812 3.25205 3.1564 2.65625 3.86719 2.65625H29.1328C29.8436 2.65625 30.4219 3.25205 30.4219 3.98438V30.0156C30.4219 30.748 29.8436 31.3438 29.1328 31.3438H3.86719C3.1564 31.3438 2.57812 30.748 2.57812 30.0156V24.7031H0V30.0156C0 32.2126 1.73482 34 3.86719 34H29.1328C31.2652 34 33 32.2126 33 30.0156V3.98438C33 1.78739 31.2652 0 29.1328 0Z" fill="#FFFEFE"/>
	<path d="M15.4688 8.74677L13.6458 10.625L18.5442 15.6719H0V18.3281H18.5442L13.6458 23.375L15.4688 25.2532L23.4792 17L15.4688 8.74677Z" fill="#FFFEFE"/>
</svg>
