<svg width="84" height="80" viewBox="0 0 84 80" fill="none" xmlns="http://www.w3.org/2000/svg">
    <path d="M24.6001 15.8761L19.6953 11.1952C18.5575 10.1094 17.044 9.51157 15.4334 9.51157C13.8228 9.51157 12.3094 10.1095 11.1717 11.1952L7.61635 14.5886C5.276 16.8219 5.276 20.4559 7.61635 22.6894L12.5315 27.3802C13.0122 27.8389 13.6427 28.0683 14.2735 28.0683C14.9024 28.0683 15.5315 27.84 16.0119 27.3836C16.974 26.4692 23.6359 20.1038 24.5967 19.1906C25.5586 18.2764 25.5602 16.7925 24.6001 15.8761Z" fill="#105C6E"/>
    <path d="M42 0.46875C40.6409 0.46875 39.5391 1.51812 39.5391 2.8125V10.3125C39.5391 11.6069 40.6409 12.6562 42 12.6562C43.3591 12.6562 44.4609 11.6069 44.4609 10.3125V2.8125C44.4609 1.51812 43.3591 0.46875 42 0.46875Z" fill="#26879C"/>
    <path d="M48.0703 0H35.9297C34.5706 0 33.4688 1.04937 33.4688 2.34375C33.4688 3.63812 34.5706 4.6875 35.9297 4.6875H48.0703C49.4294 4.6875 50.5312 3.63812 50.5312 2.34375C50.5312 1.04937 49.4294 0 48.0703 0Z" fill="#DE513C"/>
    <path d="M42 0H35.9297C34.5706 0 33.4688 1.04937 33.4688 2.34375C33.4688 3.63812 34.5706 4.6875 35.9297 4.6875H42V0Z" fill="#FC6249"/>
    <path d="M68.684 18.5336C61.5568 11.7317 52.0802 7.98563 42.0001 7.98563C31.9199 7.98563 22.4433 11.7317 15.3161 18.5336C8.19025 25.3342 4.26587 34.3759 4.26587 43.9928C4.26587 53.6097 8.19025 62.6514 15.3161 69.452C22.4433 76.2539 31.9199 80 42.0001 80C52.0802 80 61.5568 76.2539 68.684 69.452C75.8099 62.6514 79.7343 53.6097 79.7343 43.9928C79.7343 34.3759 75.8099 25.3342 68.684 18.5336Z" fill="#DE513C"/>
    <path d="M42.0001 7.98563C31.9199 7.98563 22.4433 11.7317 15.3161 18.5336C8.19025 25.3342 4.26587 34.3759 4.26587 43.9928C4.26587 53.6097 8.19025 62.6514 15.3161 69.452C22.4433 76.2539 31.9199 80 42.0001 80V7.98563Z" fill="#FC6249"/>
    <path d="M41.9999 16.9591C26.3782 16.9591 13.6689 29.0863 13.6689 43.9927C13.6689 58.8991 26.3782 71.0264 41.9999 71.0264C57.6216 71.0264 70.3309 58.8991 70.3309 43.9927C70.3309 29.0863 57.6216 16.9591 41.9999 16.9591Z" fill="#96D1D9"/>
    <path d="M41.9999 16.9591C26.3782 16.9591 13.6689 29.0863 13.6689 43.9927C13.6689 58.8991 26.3782 71.0264 41.9999 71.0264V16.9591Z" fill="#F4F2E6"/>
    <path d="M42 22.8136C43.3591 22.8136 44.4609 21.7642 44.4609 20.4699V17.0624C43.6496 16.9955 42.8292 16.9592 42 16.9592C41.1708 16.9592 40.3504 16.9955 39.5391 17.0624V20.4699C39.5391 21.7642 40.6409 22.8136 42 22.8136Z" fill="#105C6E"/>
    <path d="M42 65.172C40.6409 65.172 39.5391 66.2214 39.5391 67.5158V70.9233C40.3504 70.9902 41.1708 71.0264 42 71.0264C42.8292 71.0264 43.6496 70.9902 44.4609 70.9233V67.5158C44.4609 66.2214 43.3591 65.172 42 65.172Z" fill="#105C6E"/>
    <path d="M70.2232 41.6491H66.699C65.3399 41.6491 64.238 42.6985 64.238 43.9928C64.238 45.2872 65.3399 46.3366 66.699 46.3366H70.2232C70.2931 45.5639 70.3308 44.7825 70.3308 43.9928C70.3308 43.2031 70.2931 42.4217 70.2232 41.6491Z" fill="#105C6E"/>
    <path d="M19.7617 43.9928C19.7617 42.6985 18.6599 41.6491 17.3008 41.6491H13.7766C13.7067 42.4217 13.6689 43.2031 13.6689 43.9928C13.6689 44.7825 13.7067 45.5639 13.7766 46.3366H17.3008C18.6599 46.3366 19.7617 45.2872 19.7617 43.9928Z" fill="#105C6E"/>
    <path d="M48.0703 42.6402H44.5984V33.1609C44.5984 31.8666 43.4966 30.8172 42.1375 30.8172C40.7784 30.8172 39.6765 31.8666 39.6765 33.1609V44.9839C39.6765 46.2783 40.7784 47.3277 42.1375 47.3277H48.0703C49.4294 47.3277 50.5312 46.2783 50.5312 44.9839C50.5312 43.6895 49.4294 42.6402 48.0703 42.6402Z" fill="#105C6E"/>
</svg>
