<svg width="512" height="512" xmlns="http://www.w3.org/2000/svg">

 <g>
  <title>Layer 1</title>
  <g opacity="0.12" id="svg_1">
   <g id="svg_2">
    <path id="svg_3" d="m492,236l-216,0l0,-216c0,-11.046 -8.954,-20 -20,-20c-11.046,0 -20,8.954 -20,20l0,216l-216,0c-11.046,0 -20,8.954 -20,20s8.954,20 20,20l216,0l0,216c0,11.046 8.954,20 20,20s20,-8.954 20,-20l0,-216l216,0c11.046,0 20,-8.954 20,-20c0,-11.046 -8.954,-20 -20,-20z"/>
   </g>
  </g>
  <g id="svg_4"/>
  <g id="svg_5"/>
  <g id="svg_6"/>
  <g id="svg_7"/>
  <g id="svg_8"/>
  <g id="svg_9"/>
  <g id="svg_10"/>
  <g id="svg_11"/>
  <g id="svg_12"/>
  <g id="svg_13"/>
  <g id="svg_14"/>
  <g id="svg_15"/>
  <g id="svg_16"/>
  <g id="svg_17"/>
  <g id="svg_18"/>
 </g>
</svg>