<svg width="37" height="35" viewBox="0 0 37 35" fill="none" xmlns="http://www.w3.org/2000/svg">
    <path d="M18.5026 0C13.2168 0 8.896 4.08728 8.896 9.08732C8.896 14.0873 13.2168 18.1746 18.5026 18.1746C23.7883 18.1746 28.1092 14.0873 28.1092 9.08732C28.1092 4.08728 23.7883 0 18.5026 0Z" fill="white"/>
    <path d="M34.989 25.4365C34.7373 24.8413 34.4017 24.2857 34.0242 23.7699C32.0945 21.0714 29.1161 19.2857 25.76 18.8492C25.3406 18.8096 24.8791 18.8888 24.5435 19.127C22.7816 20.3571 20.6841 20.992 18.5027 20.992C16.3212 20.992 14.2237 20.3571 12.4618 19.127C12.1262 18.8888 11.6647 18.7698 11.2453 18.8492C7.88924 19.2857 4.86885 21.0714 2.98112 23.7699C2.60357 24.2857 2.26793 24.881 2.01629 25.4365C1.89047 25.6747 1.93238 25.9524 2.0582 26.1905C2.39384 26.7461 2.8133 27.3017 3.19085 27.7778C3.77813 28.5318 4.4074 29.2064 5.12058 29.8413C5.70786 30.3968 6.37905 30.9127 7.05031 31.4286C10.3643 33.7699 14.3496 35 18.4607 35C22.5718 35 26.5571 33.7698 29.8712 31.4286C30.5423 30.9525 31.2135 30.3968 31.8009 29.8413C32.4721 29.2064 33.1433 28.5318 33.7306 27.7778C34.1501 27.262 34.5277 26.7461 34.8633 26.1905C35.0729 25.9524 35.1148 25.6746 34.989 25.4365Z" fill="white"/>
</svg>
